<svg width="31" height="31" viewBox="0 0 31 31" fill="none" xmlns="http://www.w3.org/2000/svg">
<path d="M16.5892 5.16083C18.4863 5.16083 20.2606 5.6894 21.772 6.60654C19.5947 6.74136 17.5508 7.70127 16.0566 9.29068C14.5624 10.8801 13.7305 12.9794 13.7303 15.1609C13.7301 17.3423 14.5617 19.4418 16.0556 21.0314C17.5495 22.6211 19.5933 23.5814 21.7706 23.7165C20.451 24.515 18.9646 24.9974 17.4276 25.126C15.8906 25.2546 14.3447 25.026 12.9108 24.4579C11.4768 23.8899 10.1937 22.9978 9.16178 21.8516C8.12983 20.7053 7.37702 19.3358 6.9622 17.8503C6.54739 16.3648 6.48182 14.8034 6.77062 13.2884C7.05942 11.7733 7.69477 10.3455 8.62698 9.11678C9.55919 7.88802 10.763 6.89154 12.1443 6.20527C13.5255 5.519 15.0468 5.16153 16.5892 5.16083Z" stroke="black" stroke-linecap="round" stroke-linejoin="round"/>
</svg>
