<svg width="34" height="32" viewBox="0 0 34 32" fill="none" xmlns="http://www.w3.org/2000/svg">
<g clip-path="url(#clip0_96098_2774)">
<path d="M8.18191 13.9997C9.33578 13.1974 10.6364 12.7809 11.9399 12.7209C10.6722 13.7268 9.83118 15.1974 9.58835 16.833C9.34551 18.4687 9.7191 20.1463 10.633 21.524C11.5469 22.9018 12.9323 23.876 14.507 24.2482C16.0816 24.6204 17.727 24.3625 19.1079 23.5272C18.6399 24.5895 17.9379 25.5227 17.057 26.2539C16.1761 26.9851 15.14 27.4944 14.0299 27.7421C12.9197 27.9897 11.7656 27.969 10.6576 27.6814C9.54972 27.3939 8.51807 26.8474 7.64336 26.0847C6.76864 25.3219 6.07458 24.3636 5.61544 23.2846C5.1563 22.2057 4.94452 21.0353 4.99667 19.8651C5.04882 18.6949 5.36348 17.5565 5.91605 16.5389C6.46862 15.5214 7.24412 14.6523 8.18191 13.9997Z" stroke="#303030" stroke-linecap="round" stroke-linejoin="round"/>
</g>
<g clip-path="url(#clip1_96098_2774)">
<path d="M10.3103 12.9626C9.08578 13.814 8.12951 15.0092 7.56244 16.397C6.99536 17.7847 6.84295 19.3028 7.12447 20.7592C7.40598 22.2156 8.10879 23.5449 9.14401 24.579C10.1792 25.6131 11.5004 26.3056 12.9404 26.5689C14.3803 26.8321 15.8745 26.6544 17.2339 26.0581C18.5933 25.4618 19.7569 24.4737 20.5775 23.2188C21.3981 21.9639 21.8389 20.4986 21.8441 19.0081C21.8493 17.5176 21.4187 16.0689 20.6068 14.8452C19.5161 13.2067 17.8198 12.0884 15.8897 11.7356C13.9596 11.3827 11.9532 11.824 10.3103 12.9626ZM17.7743 24.2122C16.7724 24.9088 15.596 25.2929 14.3939 25.3158C13.1918 25.3388 12.0179 24.9996 11.0208 24.3411C10.0237 23.6827 9.24801 22.7346 8.79193 21.6167C8.33585 20.4988 8.21982 19.2613 8.45853 18.0608C8.69723 16.8602 9.27995 15.7505 10.133 14.872C10.986 13.9934 12.0711 13.3855 13.2509 13.1251C14.4307 12.8647 15.6524 12.9635 16.7614 13.4089C17.8703 13.8544 18.8168 14.6266 19.4811 15.6278C20.3719 16.9704 20.6925 18.6291 20.3724 20.239C20.0523 21.8489 19.1178 23.2781 17.7743 24.2122ZM8.13027 10.9166L6.88627 9.04164C6.78729 8.89246 6.75167 8.70816 6.78724 8.52928C6.8228 8.35041 6.92665 8.19161 7.07592 8.08782C7.2252 7.98403 7.40768 7.94375 7.58322 7.97584C7.75877 8.00794 7.91299 8.10978 8.01197 8.25896L9.25596 10.1339C9.35494 10.2831 9.39056 10.4674 9.355 10.6462C9.31943 10.8251 9.21559 10.9839 9.06631 11.0877C8.91704 11.1915 8.73455 11.2318 8.55901 11.1997C8.38347 11.1676 8.22924 11.0657 8.13027 10.9166ZM1.92693 17.5585C1.84088 17.5428 1.75911 17.51 1.68629 17.4619C1.61346 17.4138 1.55101 17.3514 1.50249 17.2783C1.45398 17.2052 1.42035 17.1227 1.40353 17.0357C1.3867 16.9487 1.38702 16.8588 1.40445 16.7711C1.42189 16.6834 1.4561 16.5997 1.50513 16.5247C1.55417 16.4497 1.61707 16.3849 1.69024 16.334C1.76341 16.2832 1.84542 16.2472 1.93159 16.2282C2.01776 16.2092 2.10639 16.2075 2.19244 16.2232L4.40153 16.6189C4.57606 16.6535 4.72891 16.756 4.82762 16.9048C4.92633 17.0536 4.96314 17.2369 4.93022 17.4157C4.91192 17.5049 4.87612 17.5899 4.82497 17.6654C4.77383 17.741 4.70839 17.8057 4.63259 17.8555C4.56038 17.9075 4.47893 17.9444 4.39307 17.9641C4.30722 17.9838 4.21872 17.9858 4.13286 17.9701L1.92693 17.5585ZM6.348 24.7591C6.44698 24.9083 6.48261 25.0926 6.44704 25.2715C6.41148 25.4503 6.30763 25.6091 6.15836 25.7129L4.2822 27.0174C4.13292 27.1212 3.95044 27.1615 3.7749 27.1294C3.59936 27.0973 3.44513 26.9954 3.34615 26.8463C3.24717 26.6971 3.21155 26.5128 3.24712 26.3339C3.28268 26.155 3.38653 25.9962 3.5358 25.8924L5.41196 24.588C5.56124 24.4842 5.74372 24.4439 5.91926 24.476C6.0948 24.5081 6.24903 24.6099 6.348 24.7591ZM12.4937 28.8153C12.6682 28.8499 12.8211 28.9525 12.9198 29.1012C13.0185 29.25 13.0553 29.4333 13.0224 29.6121L12.5673 31.8601C12.5499 31.9478 12.5157 32.0315 12.4667 32.1065C12.4176 32.1815 12.3547 32.2463 12.2816 32.2971C12.2084 32.348 12.1264 32.384 12.0402 32.403C11.954 32.422 11.8654 32.4237 11.7794 32.408C11.6933 32.3923 11.6115 32.3594 11.5387 32.3113C11.4659 32.2632 11.4034 32.2008 11.3549 32.1277C11.3064 32.0546 11.2728 31.9722 11.256 31.8851C11.2391 31.7981 11.2394 31.7082 11.2569 31.6205L11.6963 29.3697C11.7344 29.1918 11.8389 29.0343 11.9878 28.9308C12.1367 28.8273 12.3181 28.7859 12.4937 28.8153ZM20.7007 27.3832L21.9447 29.2582C22.0437 29.4073 22.0793 29.5916 22.0437 29.7705C22.0082 29.9494 21.9043 30.1082 21.755 30.212C21.6058 30.3158 21.4233 30.356 21.2477 30.324C21.0722 30.2919 20.918 30.19 20.819 30.0408L19.575 28.1659C19.476 28.0167 19.4404 27.8324 19.476 27.6536C19.5115 27.4747 19.6154 27.3159 19.7647 27.2121C19.9139 27.1083 20.0964 27.068 20.272 27.1001C20.4475 27.1322 20.6017 27.2341 20.7007 27.3832ZM26.904 20.7413C26.9901 20.757 27.0719 20.7898 27.1447 20.8379C27.2175 20.886 27.28 20.9484 27.3285 21.0215C27.377 21.0946 27.4106 21.1771 27.4274 21.2641C27.4443 21.3511 27.4439 21.441 27.4265 21.5287C27.4091 21.6164 27.3749 21.7001 27.3258 21.7751C27.2768 21.8501 27.2139 21.9149 27.1407 21.9657C27.0676 22.0166 26.9855 22.0526 26.8994 22.0716C26.8132 22.0906 26.7246 22.0923 26.6385 22.0766L24.4294 21.6809C24.2536 21.6488 24.0991 21.5468 24 21.3973C23.9008 21.2479 23.8651 21.0633 23.9007 20.8841C23.9364 20.7049 24.0404 20.5458 24.1899 20.4419C24.3395 20.3379 24.5223 20.2976 24.6981 20.3297L26.904 20.7413ZM25.4848 11.4535C25.5838 11.6027 25.6194 11.787 25.5839 11.9659C25.5483 12.1448 25.4444 12.3036 25.2952 12.4074L23.419 13.7118C23.2697 13.8156 23.0872 13.8559 22.9117 13.8238C22.7362 13.7917 22.5819 13.6899 22.483 13.5407C22.384 13.3915 22.3484 13.2072 22.3839 13.0283C22.4195 12.8495 22.5233 12.6907 22.6726 12.5869L24.5488 11.2824C24.698 11.1786 24.8805 11.1383 25.0561 11.1704C25.2316 11.2025 25.3858 11.3044 25.4848 11.4535ZM17.0516 5.89181C17.1387 5.9055 17.2217 5.93705 17.2956 5.98455C17.3695 6.03205 17.4328 6.09451 17.4817 6.16815C17.5306 6.24178 17.5639 6.32506 17.5798 6.41292C17.5957 6.50078 17.5937 6.5914 17.5741 6.67928L17.1346 8.93013C17.1173 9.01764 17.0828 9.10111 17.0333 9.17555C16.9838 9.24999 16.9202 9.31389 16.8464 9.36344C16.7732 9.41719 16.6903 9.45563 16.6028 9.47644C16.5154 9.49724 16.425 9.5 16.3373 9.48453C16.1627 9.44993 16.0099 9.34735 15.9112 9.19857C15.8125 9.04979 15.7757 8.86653 15.8086 8.68769L16.2636 6.43969C16.2791 6.35103 16.312 6.26608 16.3605 6.18999C16.409 6.11389 16.472 6.04824 16.5457 5.99701C16.6193 5.94578 16.7022 5.91004 16.7891 5.89195C16.8761 5.87387 16.9654 5.87382 17.0516 5.89181Z" fill="#303030"/>
</g>
<defs>
<clipPath id="clip0_96098_2774">
<rect width="18.8399" height="17.1899" fill="white" transform="matrix(0.834233 -0.551412 0.572289 0.820052 0 17.9033)"/>
</clipPath>
<clipPath id="clip1_96098_2774">
<rect width="14.4604" height="27.3016" fill="white" transform="matrix(0.834233 -0.551412 0.572319 0.820031 6.31128 7.97363)"/>
</clipPath>
</defs>
</svg>
