<svg width="32" height="32" viewBox="0 0 32 32" fill="none" xmlns="http://www.w3.org/2000/svg">
<path d="M13.8237 23.9661V19.5314C13.8237 18.9791 14.2714 18.5314 14.8237 18.5314H17.1715C17.7238 18.5314 18.1715 18.9791 18.1715 19.5314V23.9661C18.1715 24.5639 18.6606 25.0531 19.2584 25.0531H22.5193C23.1171 25.0531 23.6062 24.5639 23.6062 23.9661V17.3575C23.6062 16.8052 24.0539 16.3575 24.6062 16.3575H25.454C25.954 16.3575 26.1932 15.7379 25.8127 15.4118L16.7258 7.22712C16.3128 6.85756 15.6824 6.85756 15.2693 7.22712L6.18245 15.4118C5.81288 15.7379 6.04114 16.3575 6.54114 16.3575H7.38895C7.94124 16.3575 8.38895 16.8052 8.38895 17.3575V23.9661C8.38895 24.5639 8.87808 25.0531 9.4759 25.0531H12.7367C13.3346 25.0531 13.8237 24.5639 13.8237 23.9661Z" fill="#74A2B2"/>
<path d="M13.8237 23.9661V19.5314C13.8237 18.9791 14.2714 18.5314 14.8237 18.5314H17.1715C17.7238 18.5314 18.1715 18.9791 18.1715 19.5314V23.9661C18.1715 24.5639 18.6606 25.0531 19.2584 25.0531H22.5193C23.1171 25.0531 23.6062 24.5639 23.6062 23.9661V17.3575C23.6062 16.8052 24.0539 16.3575 24.6062 16.3575H25.454C25.954 16.3575 26.1932 15.7379 25.8127 15.4118L16.7258 7.22712C16.3128 6.85756 15.6824 6.85756 15.2693 7.22712L6.18245 15.4118C5.81288 15.7379 6.04114 16.3575 6.54114 16.3575H7.38895C7.94124 16.3575 8.38895 16.8052 8.38895 17.3575V23.9661C8.38895 24.5639 8.87808 25.0531 9.4759 25.0531H12.7367C13.3346 25.0531 13.8237 24.5639 13.8237 23.9661Z" fill="#5ED3F3"/>
<path d="M13.8237 23.9661V19.5314C13.8237 18.9791 14.2714 18.5314 14.8237 18.5314H17.1715C17.7238 18.5314 18.1715 18.9791 18.1715 19.5314V23.9661C18.1715 24.5639 18.6606 25.0531 19.2584 25.0531H22.5193C23.1171 25.0531 23.6062 24.5639 23.6062 23.9661V17.3575C23.6062 16.8052 24.0539 16.3575 24.6062 16.3575H25.454C25.954 16.3575 26.1932 15.7379 25.8127 15.4118L16.7258 7.22712C16.3128 6.85756 15.6824 6.85756 15.2693 7.22712L6.18245 15.4118C5.81288 15.7379 6.04114 16.3575 6.54114 16.3575H7.38895C7.94124 16.3575 8.38895 16.8052 8.38895 17.3575V23.9661C8.38895 24.5639 8.87808 25.0531 9.4759 25.0531H12.7367C13.3346 25.0531 13.8237 24.5639 13.8237 23.9661Z" fill="#4875F0"/>
</svg>
