<svg width="30" height="30" viewBox="0 0 30 30" fill="none" xmlns="http://www.w3.org/2000/svg">
<path d="M15 7.26562C13.4703 7.26562 11.9749 7.71924 10.703 8.5691C9.4311 9.41897 8.43977 10.6269 7.85437 12.0402C7.26897 13.4535 7.11581 15.0086 7.41424 16.5089C7.71267 18.0092 8.4493 19.3874 9.53097 20.469C10.6126 21.5507 11.9908 22.2873 13.4911 22.5858C14.9914 22.8842 16.5465 22.731 17.9598 22.1456C19.3731 21.5602 20.581 20.5689 21.4309 19.297C22.2808 18.0251 22.7344 16.5297 22.7344 15C22.7313 12.9497 21.9154 10.9842 20.4656 9.5344C19.0158 8.08459 17.0503 7.26872 15 7.26562ZM15 21.3281C13.7484 21.3281 12.5249 20.957 11.4843 20.2616C10.4436 19.5663 9.63254 18.578 9.15357 17.4217C8.67461 16.2654 8.5493 14.993 8.79347 13.7654C9.03764 12.5379 9.64034 11.4103 10.5253 10.5253C11.4103 9.64034 12.5379 9.03764 13.7654 8.79347C14.993 8.5493 16.2654 8.67461 17.4217 9.15357C18.578 9.63254 19.5663 10.4436 20.2616 11.4843C20.957 12.5249 21.3281 13.7484 21.3281 15C21.3281 16.6783 20.6614 18.2879 19.4747 19.4747C18.2879 20.6614 16.6783 21.3281 15 21.3281ZM14.2969 4.21875V1.875C14.2969 1.68852 14.371 1.50968 14.5028 1.37782C14.6347 1.24595 14.8135 1.17188 15 1.17188C15.1865 1.17188 15.3653 1.24595 15.4972 1.37782C15.629 1.50968 15.7031 1.68852 15.7031 1.875V4.21875C15.7031 4.40523 15.629 4.58407 15.4972 4.71593C15.3653 4.8478 15.1865 4.92188 15 4.92188C14.8135 4.92188 14.6347 4.8478 14.5028 4.71593C14.371 4.58407 14.2969 4.40523 14.2969 4.21875ZM5.22656 6.21094C5.16193 6.1463 5.11066 6.06957 5.07568 5.98512C5.0407 5.90067 5.02269 5.81016 5.02269 5.71875C5.02269 5.62734 5.0407 5.53683 5.07568 5.45238C5.11066 5.36793 5.16193 5.2912 5.22656 5.22656C5.2912 5.16193 5.36793 5.11066 5.45238 5.07568C5.53683 5.0407 5.62734 5.02269 5.71875 5.02269C5.81016 5.02269 5.90067 5.0407 5.98512 5.07568C6.06957 5.11066 6.1463 5.16193 6.21094 5.22656L7.875 6.87891C8.00458 7.01232 8.07706 7.19097 8.07706 7.37695C8.07706 7.56293 8.00458 7.74159 7.875 7.875C7.80875 7.94043 7.72997 7.9918 7.64338 8.02603C7.55679 8.06026 7.46417 8.07665 7.37109 8.07422C7.27988 8.07574 7.1893 8.05889 7.10474 8.02466C7.02018 7.99043 6.94338 7.93954 6.87891 7.875L5.22656 6.21094ZM4.92188 15C4.92188 15.1865 4.8478 15.3653 4.71593 15.4972C4.58407 15.629 4.40523 15.7031 4.21875 15.7031H1.875C1.68852 15.7031 1.50968 15.629 1.37782 15.4972C1.24595 15.3653 1.17188 15.1865 1.17188 15C1.17188 14.8135 1.24595 14.6347 1.37782 14.5028C1.50968 14.371 1.68852 14.2969 1.875 14.2969H4.21875C4.40523 14.2969 4.58407 14.371 4.71593 14.5028C4.8478 14.6347 4.92188 14.8135 4.92188 15ZM7.875 22.125C8.00458 22.2584 8.07706 22.4371 8.07706 22.623C8.07706 22.809 8.00458 22.9877 7.875 23.1211L6.21094 24.7734C6.1463 24.8381 6.06957 24.8893 5.98512 24.9243C5.90067 24.9593 5.81016 24.9773 5.71875 24.9773C5.62734 24.9773 5.53683 24.9593 5.45238 24.9243C5.36793 24.8893 5.2912 24.8381 5.22656 24.7734C5.16193 24.7088 5.11066 24.6321 5.07568 24.5476C5.0407 24.4632 5.02269 24.3727 5.02269 24.2812C5.02269 24.1898 5.0407 24.0993 5.07568 24.0149C5.11066 23.9304 5.16193 23.8537 5.22656 23.7891L6.87891 22.125C7.01232 21.9954 7.19097 21.9229 7.37695 21.9229C7.56293 21.9229 7.74159 21.9954 7.875 22.125ZM15.7031 25.7812V28.125C15.7031 28.3115 15.629 28.4903 15.4972 28.6222C15.3653 28.754 15.1865 28.8281 15 28.8281C14.8135 28.8281 14.6347 28.754 14.5028 28.6222C14.371 28.4903 14.2969 28.3115 14.2969 28.125V25.7812C14.2969 25.5948 14.371 25.4159 14.5028 25.2841C14.6347 25.1522 14.8135 25.0781 15 25.0781C15.1865 25.0781 15.3653 25.1522 15.4972 25.2841C15.629 25.4159 15.7031 25.5948 15.7031 25.7812ZM24.7734 23.7891C24.8381 23.8537 24.8893 23.9304 24.9243 24.0149C24.9593 24.0993 24.9773 24.1898 24.9773 24.2812C24.9773 24.3727 24.9593 24.4632 24.9243 24.5476C24.8893 24.6321 24.8381 24.7088 24.7734 24.7734C24.7088 24.8381 24.6321 24.8893 24.5476 24.9243C24.4632 24.9593 24.3727 24.9773 24.2812 24.9773C24.1898 24.9773 24.0993 24.9593 24.0149 24.9243C23.9304 24.8893 23.8537 24.8381 23.7891 24.7734L22.125 23.1211C21.9929 22.989 21.9187 22.8099 21.9187 22.623C21.9187 22.4362 21.9929 22.2571 22.125 22.125C22.2571 21.9929 22.4362 21.9187 22.623 21.9187C22.8099 21.9187 22.989 21.9929 23.1211 22.125L24.7734 23.7891ZM28.8281 15C28.8281 15.1865 28.754 15.3653 28.6222 15.4972C28.4903 15.629 28.3115 15.7031 28.125 15.7031H25.7812C25.5948 15.7031 25.4159 15.629 25.2841 15.4972C25.1522 15.3653 25.0781 15.1865 25.0781 15C25.0781 14.8135 25.1522 14.6347 25.2841 14.5028C25.4159 14.371 25.5948 14.2969 25.7812 14.2969H28.125C28.3115 14.2969 28.4903 14.371 28.6222 14.5028C28.754 14.6347 28.8281 14.8135 28.8281 15ZM24.7734 5.22656C24.8401 5.29004 24.8932 5.3664 24.9294 5.45101C24.9657 5.53561 24.9844 5.6267 24.9844 5.71875C24.9844 5.8108 24.9657 5.90189 24.9294 5.98649C24.8932 6.0711 24.8401 6.14746 24.7734 6.21094L23.1211 7.875C23.0566 7.93954 22.9798 7.99043 22.8953 8.02466C22.8107 8.05889 22.7201 8.07574 22.6289 8.07422C22.5358 8.07665 22.4432 8.06026 22.3566 8.02603C22.27 7.9918 22.1913 7.94043 22.125 7.875C21.9954 7.74159 21.9229 7.56293 21.9229 7.37695C21.9229 7.19097 21.9954 7.01232 22.125 6.87891L23.7891 5.22656C23.8525 5.15991 23.9289 5.10684 24.0135 5.07058C24.0981 5.03432 24.1892 5.01562 24.2812 5.01562C24.3733 5.01562 24.4644 5.03432 24.549 5.07058C24.6336 5.10684 24.71 5.15991 24.7734 5.22656Z" fill="#303030"/>
</svg>
