<svg width="50" height="50" viewBox="0 0 50 50" fill="none" xmlns="http://www.w3.org/2000/svg">
<circle cx="25" cy="25" r="25" fill="#555555"/>
<g clip-path="url(#clip0_17_4)">
<path d="M18.6831 18.6734C20.1156 17.4296 21.8019 16.6654 23.5445 16.367C21.9888 17.8963 21.0748 19.9612 20.9886 22.1409C20.9025 24.3207 21.6507 26.4513 23.0808 28.0986C24.5108 29.7459 26.5152 30.786 28.6855 31.0069C30.8557 31.2277 33.0285 30.6128 34.7612 29.2874C34.2883 30.7555 33.4822 32.0943 32.4059 33.1991C31.3297 34.3039 30.0125 35.1448 28.5573 35.656C27.1021 36.1672 25.5484 36.3348 24.0177 36.1459C22.487 35.9569 21.0207 35.4164 19.7335 34.5667C18.4463 33.717 17.3732 32.581 16.5979 31.2476C15.8227 29.9143 15.3663 28.4197 15.2646 26.8807C15.1629 25.3417 15.4186 23.8 16.0116 22.3762C16.6046 20.9524 17.519 19.6851 18.6831 18.6734Z" stroke="#DBDBDB" stroke-linecap="round" stroke-linejoin="round"/>
</g>
<defs>
<clipPath id="clip0_17_4">
<rect width="30" height="30" fill="white" transform="translate(3 25.6689) rotate(-40.9671)"/>
</clipPath>
</defs>
</svg>
