<svg width="59" height="58" viewBox="0 0 59 58" fill="none" xmlns="http://www.w3.org/2000/svg">
<ellipse cx="42.5399" cy="41.5399" rx="7.14" ry="7.14" fill="url(#paint0_linear_20531_4446)"/>
<path d="M42.1142 27.6079C42.4172 26.9662 43.3301 26.9662 43.6332 27.6079L45.581 31.7312C45.8442 32.2884 45.4377 32.93 44.8215 32.93H40.9259C40.3096 32.93 39.9032 32.2884 40.1664 31.7312L42.1142 27.6079Z" fill="url(#paint1_linear_20531_4446)"/>
<path d="M33.1518 31.3833C32.9715 30.6969 33.6708 30.1102 34.3154 30.4068L38.458 32.3135C39.0178 32.5712 39.1188 33.3239 38.6467 33.72L35.6625 36.2241C35.1904 36.6202 34.4667 36.39 34.3101 35.7939L33.1518 31.3833Z" fill="url(#paint2_linear_20531_4446)"/>
<path d="M52.9566 32.5522C53.2134 31.8907 52.585 31.2285 51.911 31.4503L47.5793 32.8758C46.9939 33.0684 46.8083 33.8049 47.2325 34.2519L49.914 37.0776C50.3383 37.5247 51.0834 37.3779 51.3064 36.8034L52.9566 32.5522Z" fill="url(#paint3_linear_20531_4446)"/>
<path d="M56.6822 42.6332C57.3238 42.3301 57.3238 41.4172 56.6822 41.1141L52.5588 39.1663C52.0016 38.9031 51.36 39.3096 51.36 39.9259V43.8214C51.36 44.4377 52.0016 44.8442 52.5588 44.5809L56.6822 42.6332Z" fill="url(#paint4_linear_20531_4446)"/>
<path d="M28.6079 42.6332C27.9662 42.3301 27.9662 41.4172 28.6079 41.1141L32.7312 39.1663C33.2884 38.9031 33.93 39.3096 33.93 39.9259V43.8214C33.93 44.4377 33.2884 44.8442 32.7312 44.5809L28.6079 42.6332Z" fill="url(#paint5_linear_20531_4446)"/>
<path d="M42.2816 55.7515C42.5847 56.3931 43.4976 56.3931 43.8007 55.7515L45.7485 51.6282C46.0117 51.0709 45.6052 50.4294 44.9889 50.4294H41.0934C40.4771 50.4294 40.0706 51.0709 40.3339 51.6282L42.2816 55.7515Z" fill="url(#paint6_linear_20531_4446)"/>
<path d="M33.3193 51.9763C33.139 52.6627 33.8383 53.2495 34.4829 52.9528L38.6254 51.0461C39.1853 50.7884 39.2863 50.0357 38.8142 49.6396L35.83 47.1356C35.3579 46.7394 34.6342 46.9696 34.4776 47.5657L33.3193 51.9763Z" fill="url(#paint7_linear_20531_4446)"/>
<path d="M53.1241 50.8072C53.3809 51.4687 52.7525 52.1309 52.0785 51.9091L47.7468 50.4836C47.1614 50.291 46.9758 49.5545 47.4 49.1075L50.0815 46.2817C50.5057 45.8347 51.2509 45.9815 51.4739 46.556L53.1241 50.8072Z" fill="url(#paint8_linear_20531_4446)"/>
<path d="M8.74 13.8579C8.74 23.5179 22.54 27.6355 13.8 27.6355C6.17847 27.6355 0 21.4571 0 13.8355C0 6.214 6.17847 0 13.8 0C23 0 8.74 3.55411 8.74 13.8579Z" fill="url(#paint9_linear_20531_4446)"/>
<path d="M15.089 16.1644C15.2184 15.7664 15.7814 15.7664 15.9108 16.1644L16.2112 17.0889C16.269 17.2669 16.4349 17.3874 16.622 17.3874H17.5941C18.0126 17.3874 18.1866 17.923 17.8481 18.1689L17.0616 18.7403C16.9102 18.8503 16.8468 19.0453 16.9047 19.2233L17.2051 20.1479C17.3344 20.5459 16.8789 20.8768 16.5403 20.6309L15.7538 20.0595C15.6024 19.9495 15.3974 19.9495 15.246 20.0595L14.4595 20.6309C14.1209 20.8768 13.6654 20.5459 13.7947 20.1479L14.0951 19.2233C14.153 19.0453 14.0896 18.8503 13.9382 18.7403L13.1517 18.1689C12.8132 17.923 12.9872 17.3874 13.4057 17.3874H14.3778C14.5649 17.3874 14.7308 17.2669 14.7886 17.0889L15.089 16.1644Z" fill="url(#paint10_linear_20531_4446)"/>
<path d="M19.0823 6.65722C19.2452 6.15573 19.9547 6.15573 20.1176 6.65722L20.4962 7.82215C20.569 8.04643 20.778 8.19827 21.0138 8.19827H22.2387C22.766 8.19827 22.9852 8.87302 22.5587 9.18295L21.5677 9.90292C21.3769 10.0415 21.2971 10.2872 21.37 10.5115L21.7485 11.6764C21.9114 12.1779 21.3374 12.5949 20.9109 12.285L19.9199 11.565C19.7291 11.4264 19.4708 11.4264 19.28 11.565L18.2891 12.285C17.8625 12.5949 17.2885 12.1779 17.4514 11.6764L17.83 10.5115C17.9028 10.2872 17.823 10.0415 17.6322 9.90292L16.6413 9.18295C16.2147 8.87302 16.4339 8.19827 16.9612 8.19827H18.1861C18.4219 8.19827 18.6309 8.04643 18.7038 7.82215L19.0823 6.65722Z" fill="url(#paint11_linear_20531_4446)"/>
<rect x="37.7485" y="15" width="2" height="35" rx="1" transform="rotate(45 37.7485 15)" fill="url(#paint12_linear_20531_4446)"/>
<defs>
<linearGradient id="paint0_linear_20531_4446" x1="42.5399" y1="34.3999" x2="42.5399" y2="48.6799" gradientUnits="userSpaceOnUse">
<stop stop-color="#3BCC38"/>
<stop offset="1"/>
</linearGradient>
<linearGradient id="paint1_linear_20531_4446" x1="42.8737" y1="27.26" x2="42.4537" y2="34.82" gradientUnits="userSpaceOnUse">
<stop stop-color="#3BCC38"/>
<stop offset="0.586164" stop-color="#277925"/>
<stop offset="1"/>
</linearGradient>
<linearGradient id="paint2_linear_20531_4446" x1="33.51" y1="30.6286" x2="38.0477" y2="36.6898" gradientUnits="userSpaceOnUse">
<stop stop-color="#3BCC38"/>
<stop offset="0.586164" stop-color="#277925"/>
<stop offset="1"/>
</linearGradient>
<linearGradient id="paint3_linear_20531_4446" x1="52.6862" y1="31.7618" x2="47.4914" y2="37.2704" gradientUnits="userSpaceOnUse">
<stop stop-color="#3BCC38"/>
<stop offset="0.586164" stop-color="#277925"/>
<stop offset="1"/>
</linearGradient>
<linearGradient id="paint4_linear_20531_4446" x1="57.03" y1="41.8736" x2="49.47" y2="42.2936" gradientUnits="userSpaceOnUse">
<stop stop-color="#3BCC38"/>
<stop offset="0.586164" stop-color="#277925"/>
<stop offset="1"/>
</linearGradient>
<linearGradient id="paint5_linear_20531_4446" x1="28.26" y1="41.8736" x2="35.82" y2="42.2936" gradientUnits="userSpaceOnUse">
<stop stop-color="#3BCC38"/>
<stop offset="0.586164" stop-color="#277925"/>
<stop offset="1"/>
</linearGradient>
<linearGradient id="paint6_linear_20531_4446" x1="43.0412" y1="56.0994" x2="42.6212" y2="48.5394" gradientUnits="userSpaceOnUse">
<stop stop-color="#3BCC38"/>
<stop offset="0.586164" stop-color="#277925"/>
<stop offset="1"/>
</linearGradient>
<linearGradient id="paint7_linear_20531_4446" x1="33.6775" y1="52.731" x2="38.2152" y2="46.6698" gradientUnits="userSpaceOnUse">
<stop stop-color="#3BCC38"/>
<stop offset="0.586164" stop-color="#277925"/>
<stop offset="1"/>
</linearGradient>
<linearGradient id="paint8_linear_20531_4446" x1="52.8536" y1="51.5976" x2="47.6589" y2="46.089" gradientUnits="userSpaceOnUse">
<stop stop-color="#3BCC38"/>
<stop offset="0.586164" stop-color="#277925"/>
<stop offset="1"/>
</linearGradient>
<linearGradient id="paint9_linear_20531_4446" x1="8.44611" y1="0" x2="8.44611" y2="27.6355" gradientUnits="userSpaceOnUse">
<stop stop-color="#3BCC38"/>
<stop offset="1"/>
</linearGradient>
<linearGradient id="paint10_linear_20531_4446" x1="15.4999" y1="15.4999" x2="15.4999" y2="21.4999" gradientUnits="userSpaceOnUse">
<stop stop-color="#3BCC38"/>
<stop offset="1"/>
</linearGradient>
<linearGradient id="paint11_linear_20531_4446" x1="19.5" y1="6.49994" x2="19.5" y2="12.9999" gradientUnits="userSpaceOnUse">
<stop stop-color="#3BCC38"/>
<stop offset="1"/>
</linearGradient>
<linearGradient id="paint12_linear_20531_4446" x1="38.7485" y1="15" x2="38.7485" y2="50" gradientUnits="userSpaceOnUse">
<stop stop-color="#3BCC38"/>
<stop offset="1"/>
</linearGradient>
</defs>
</svg>
